<svg width="229" height="25" viewBox="0 0 229 25" fill="none" xmlns="http://www.w3.org/2000/svg">
<path d="M24.425 7.62L23.525 7.35C23.585 7.17 23.615 6.99 23.615 6.81C23.615 6.36 23.33 5.955 22.76 5.595C22.22 5.235 21.515 4.935 20.645 4.695C19.805 4.425 18.875 4.23 17.855 4.11C16.865 3.99 15.92 3.93 15.02 3.93C13.91 3.93 12.8 4.095 11.69 4.425C10.61 4.725 9.635 5.205 8.765 5.865C7.925 6.525 7.235 7.38 6.695 8.43C6.185 9.48 5.93 10.755 5.93 12.255C5.93 13.725 6.185 15 6.695 16.08C7.235 17.13 7.925 17.985 8.765 18.645C9.635 19.305 10.61 19.8 11.69 20.13C12.8 20.43 13.91 20.58 15.02 20.58C16.73 20.58 18.26 20.445 19.61 20.175C20.99 19.875 22.16 19.56 23.12 19.23V15.36H17.36C16.94 15.36 16.625 15.45 16.415 15.63C16.205 15.81 16.07 16.2 16.01 16.8H15.2V11.04H16.01C16.07 11.55 16.205 11.88 16.415 12.03C16.625 12.15 16.94 12.21 17.36 12.21H28.61V13.02C28.01 13.11 27.635 13.215 27.485 13.335C27.335 13.455 27.26 13.71 27.26 14.1V19.185C27.26 19.485 27.35 19.68 27.53 19.77C27.71 19.86 27.92 19.965 28.16 20.085V20.805C27.17 21.495 26.12 22.065 25.01 22.515C23.93 22.965 22.82 23.325 21.68 23.595C20.57 23.835 19.445 23.985 18.305 24.045C17.195 24.105 16.1 24.135 15.02 24.135C12.92 24.135 11 23.88 9.26 23.37C7.55 22.83 6.08 22.05 4.85 21.03C3.62 19.98 2.66 18.72 1.97 17.25C1.31 15.75 0.98 14.055 0.98 12.165C0.98 10.275 1.31 8.595 1.97 7.125C2.66 5.625 3.62 4.35 4.85 3.3C6.08 2.25 7.55 1.455 9.26 0.914999C11 0.345 12.92 0.0599998 15.02 0.0599998C16.34 0.0599998 17.6 0.149999 18.8 0.329999C20 0.509998 21.065 0.719998 21.995 0.959999C22.925 1.17 23.69 1.38 24.29 1.59C24.92 1.77 25.31 1.86 25.46 1.86C25.73 1.86 25.94 1.8 26.09 1.68C26.24 1.56 26.39 1.455 26.54 1.365L27.08 1.68L24.425 7.62ZM163.716 1.95C163.716 1.41 163.386 1.14 162.726 1.14V0.329999H169.656V1.14C169.446 1.14 169.251 1.215 169.071 1.365C168.921 1.485 168.846 1.68 168.846 1.95V22.38C168.846 22.65 168.921 22.86 169.071 23.01C169.251 23.13 169.446 23.19 169.656 23.19V24H162.726V23.19C163.386 23.19 163.716 22.92 163.716 22.38V13.92H149.226V22.38C149.226 22.65 149.301 22.86 149.451 23.01C149.631 23.13 149.826 23.19 150.036 23.19V24H143.241V23.19C143.811 23.19 144.096 22.92 144.096 22.38V1.95C144.096 1.41 143.811 1.14 143.241 1.14V0.329999H150.036V1.14C149.826 1.14 149.631 1.215 149.451 1.365C149.301 1.485 149.226 1.68 149.226 1.95V9.6H163.716V1.95Z" fill="#5D89FB" fill-opacity="0.8"/>
<path d="M47.1806 15.72L43.5356 8.16L40.3406 15.72H47.1806ZM32.1506 23.19C32.5106 23.13 32.7956 22.965 33.0056 22.695C33.2456 22.395 33.4256 22.125 33.5456 21.885L40.2506 7.26C40.4306 6.84 40.5656 6.51 40.6556 6.27C40.7756 6 40.8356 5.745 40.8356 5.505C40.8356 5.325 40.7906 5.22 40.7006 5.19C40.6406 5.13 40.5656 5.07 40.4756 5.01V4.2H47.2706V5.01C47.1806 5.07 47.0756 5.115 46.9556 5.145C46.8656 5.175 46.8206 5.295 46.8206 5.505C46.8206 5.685 46.8806 5.91 47.0006 6.18C47.1506 6.42 47.3006 6.705 47.4506 7.035L54.7406 22.335C54.8906 22.605 55.0556 22.8 55.2356 22.92C55.4156 23.04 55.6106 23.13 55.8206 23.19V24H49.4306V23.325C49.5806 23.325 49.7306 23.28 49.8806 23.19C50.0606 23.1 50.1506 22.935 50.1506 22.695C50.1506 22.515 50.1206 22.35 50.0606 22.2C50.0006 22.05 49.9256 21.855 49.8356 21.615L48.6206 19.05H38.9906L37.7306 21.48C37.6106 21.72 37.5056 21.945 37.4156 22.155C37.3556 22.335 37.3256 22.5 37.3256 22.65C37.3256 22.89 37.4006 23.04 37.5506 23.1C37.7006 23.16 37.9106 23.19 38.1806 23.19V24H32.1506V23.19ZM60.6655 23.19C60.8155 23.16 60.9355 23.1 61.0255 23.01C61.1455 22.92 61.2055 22.71 61.2055 22.38V5.91C61.2055 5.49 61.1605 5.235 61.0705 5.145C61.0105 5.055 60.8755 5.01 60.6655 5.01V4.2H66.9205V5.01C66.6205 5.01 66.4705 5.145 66.4705 5.415C66.4705 5.535 66.5155 5.7 66.6055 5.91C66.7255 6.09 66.8905 6.36 67.1005 6.72L72.5905 16.845L78.1255 6.765C78.3355 6.405 78.5005 6.12 78.6205 5.91C78.7405 5.67 78.8005 5.505 78.8005 5.415C78.8005 5.145 78.6805 5.01 78.4405 5.01V4.2H84.7855V5.01C84.6355 5.01 84.4855 5.055 84.3355 5.145C84.2155 5.205 84.1555 5.355 84.1555 5.595V22.515C84.1555 22.755 84.2155 22.935 84.3355 23.055C84.4855 23.145 84.6355 23.19 84.7855 23.19V24H79.5655V23.19C80.1955 23.19 80.4655 22.965 80.3755 22.515V9.87H80.2855L72.6355 24H72.2755L65.0305 9.87H65.0755H64.9855V22.515C64.9855 22.965 65.2405 23.19 65.7505 23.19V24H60.6655V23.19ZM110.016 8.385C110.016 7.815 109.551 7.53 108.621 7.53H97.6411V12.03H104.571C105.081 12.03 105.456 12 105.696 11.94C105.936 11.85 106.056 11.64 106.056 11.31H106.866V16.08H105.966C106.056 15.75 105.936 15.555 105.606 15.495C105.276 15.405 104.811 15.36 104.211 15.36H97.6411V20.67H109.161C109.521 20.67 109.821 20.595 110.061 20.445C110.301 20.265 110.421 20.04 110.421 19.77H111.231V24.495H110.421C110.421 24.225 110.301 24.075 110.061 24.045C109.821 24.015 109.521 24 109.161 24H92.6461V23.19C92.7961 23.19 92.9461 23.145 93.0961 23.055C93.2461 22.935 93.3211 22.755 93.3211 22.515V5.685C93.3211 5.445 93.2461 5.28 93.0961 5.19C92.9461 5.07 92.7961 5.01 92.6461 5.01V4.2H108.621C109.551 4.2 110.016 3.93 110.016 3.39H110.826V8.385H110.016ZM118.956 17.115C118.956 17.235 118.941 17.37 118.911 17.52C118.911 17.64 118.911 17.775 118.911 17.925C118.911 18.375 119.196 18.795 119.766 19.185C120.336 19.545 121.011 19.86 121.791 20.13C122.601 20.37 123.396 20.565 124.176 20.715C124.986 20.865 125.616 20.94 126.066 20.94C126.486 20.94 126.996 20.91 127.596 20.85C128.226 20.79 128.841 20.67 129.441 20.49C130.041 20.28 130.551 20.01 130.971 19.68C131.391 19.32 131.601 18.855 131.601 18.285C131.601 17.625 131.226 17.145 130.476 16.845C129.756 16.545 128.841 16.32 127.731 16.17C126.621 15.99 125.421 15.825 124.131 15.675C122.841 15.495 121.641 15.225 120.531 14.865C119.421 14.475 118.491 13.935 117.741 13.245C117.021 12.525 116.661 11.52 116.661 10.23C116.661 8.31 117.456 6.78 119.046 5.64C120.636 4.5 122.871 3.93 125.751 3.93C127.161 3.93 128.361 4.05 129.351 4.29C130.371 4.5 131.226 4.74 131.916 5.01C132.606 5.28 133.161 5.535 133.581 5.775C134.031 5.985 134.361 6.09 134.571 6.09C134.811 6.09 134.991 6.06 135.111 6C135.231 5.91 135.381 5.82 135.561 5.73L136.056 6.225L133.806 10.455L132.996 10.185C132.966 10.005 132.936 9.825 132.906 9.645C132.876 9.465 132.741 9.285 132.501 9.105C131.901 8.595 130.971 8.16 129.711 7.8C128.451 7.44 127.041 7.26 125.481 7.26C124.881 7.26 124.311 7.305 123.771 7.395C123.231 7.455 122.751 7.575 122.331 7.755C121.911 7.935 121.581 8.175 121.341 8.475C121.101 8.745 120.981 9.09 120.981 9.51C120.981 10.17 121.341 10.65 122.061 10.95C122.811 11.22 123.741 11.445 124.851 11.625C125.961 11.775 127.161 11.94 128.451 12.12C129.741 12.27 130.941 12.54 132.051 12.93C133.161 13.32 134.076 13.89 134.796 14.64C135.546 15.39 135.921 16.425 135.921 17.745C135.921 19.065 135.591 20.145 134.931 20.985C134.301 21.825 133.506 22.485 132.546 22.965C131.586 23.445 130.521 23.76 129.351 23.91C128.211 24.06 127.131 24.135 126.111 24.135C125.091 24.135 124.071 24.045 123.051 23.865C122.061 23.655 121.146 23.43 120.306 23.19C119.496 22.92 118.806 22.68 118.236 22.47C117.666 22.23 117.321 22.11 117.201 22.11C116.991 22.11 116.811 22.2 116.661 22.38L116.031 21.93L118.101 16.89L118.956 17.115ZM183.755 5.01C183.095 5.01 182.765 5.235 182.765 5.685V15.99C182.765 17.43 183.29 18.585 184.34 19.455C185.39 20.325 186.995 20.76 189.155 20.76C191.315 20.76 192.92 20.325 193.97 19.455C195.02 18.585 195.545 17.43 195.545 15.99V5.685C195.545 5.235 195.17 5.01 194.42 5.01V4.2H200.675V5.01C200.015 5.01 199.685 5.235 199.685 5.685V17.07C199.685 18 199.475 18.9 199.055 19.77C198.635 20.61 197.99 21.36 197.12 22.02C196.28 22.68 195.185 23.205 193.835 23.595C192.515 23.955 190.955 24.135 189.155 24.135C187.355 24.135 185.78 23.955 184.43 23.595C183.11 23.205 182.015 22.68 181.145 22.02C180.305 21.36 179.675 20.61 179.255 19.77C178.835 18.9 178.625 18 178.625 17.07V5.685C178.625 5.445 178.535 5.28 178.355 5.19C178.175 5.07 177.83 5.01 177.32 5.01V4.2H183.755V5.01ZM220.52 12.03C221.24 12.03 221.915 11.88 222.545 11.58C223.175 11.28 223.49 10.665 223.49 9.735C223.49 9.255 223.4 8.88 223.22 8.61C223.04 8.31 222.815 8.085 222.545 7.935C222.275 7.755 221.96 7.65 221.6 7.62C221.24 7.56 220.88 7.53 220.52 7.53H212.51V12.03H220.52ZM220.43 20.67C221.81 20.67 222.755 20.445 223.265 19.995C223.775 19.545 224.03 18.915 224.03 18.105C224.03 17.175 223.7 16.485 223.04 16.035C222.38 15.585 221.27 15.36 219.71 15.36H212.51V20.67H220.43ZM208.19 5.685C208.19 5.445 208.07 5.28 207.83 5.19C207.62 5.07 207.395 5.01 207.155 5.01V4.2H221.15C222.29 4.2 223.265 4.335 224.075 4.605C224.915 4.875 225.605 5.25 226.145 5.73C226.715 6.18 227.135 6.705 227.405 7.305C227.675 7.905 227.81 8.535 227.81 9.195C227.81 9.735 227.72 10.245 227.54 10.725C227.36 11.175 227.12 11.595 226.82 11.985C226.55 12.345 226.235 12.675 225.875 12.975C225.545 13.275 225.2 13.515 224.84 13.695V13.74C225.26 13.92 225.68 14.16 226.1 14.46C226.52 14.76 226.895 15.12 227.225 15.54C227.555 15.96 227.825 16.44 228.035 16.98C228.245 17.52 228.35 18.105 228.35 18.735C228.35 19.455 228.215 20.13 227.945 20.76C227.675 21.39 227.24 21.945 226.64 22.425C226.07 22.905 225.305 23.295 224.345 23.595C223.415 23.865 222.29 24 220.97 24H207.155V23.19C207.395 23.19 207.62 23.145 207.83 23.055C208.07 22.935 208.19 22.755 208.19 22.515V5.685Z" fill="#DDDDDD" fill-opacity="0.8"/>
</svg>
