<svg width="114" height="50" viewBox="0 0 114 50" fill="none" xmlns="http://www.w3.org/2000/svg">
<rect x="1.09863" width="112" height="50" rx="6" fill="url(#paint0_linear_1837_2152)" fill-opacity="0.95"/>
<path d="M20.1675 28.5784L20.1675 30L15.0733 30L15.0733 28.5784L20.1675 28.5784ZM15.6262 20.4172L15.6262 30L13.8162 30L13.8162 20.4172L15.6262 20.4172ZM19.5027 24.3727L19.5027 25.7614L15.0733 25.7614L15.0733 24.3727L19.5027 24.3727ZM20.1477 20.4172L20.1477 21.8454L15.0733 21.8454L15.0733 20.4172L20.1477 20.4172ZM22.6553 22.8787L23.9256 25.1428L25.2156 22.8787L27.1045 22.8787L25.0115 26.367L27.19 30L25.3011 30L23.9387 27.624L22.5697 30L20.6808 30L22.8528 26.367L20.773 22.8787L22.6553 22.8787ZM29.849 24.2477L29.849 32.7379L28.1049 32.7379L28.1049 22.8787L29.7174 22.8787L29.849 24.2477ZM34.4232 26.367L34.4232 26.5052C34.4232 27.0229 34.3618 27.5034 34.2389 27.9465C34.1205 28.3853 33.945 28.7692 33.7124 29.0983C33.4799 29.423 33.1903 29.6775 32.8436 29.8618C32.5014 30.0417 32.1065 30.1316 31.6589 30.1316C31.2202 30.1316 30.8384 30.0483 30.5137 29.8815C30.1891 29.7104 29.9148 29.4691 29.691 29.1576C29.4673 28.846 29.2874 28.484 29.1514 28.0716C29.0197 27.6548 28.921 27.2006 28.8552 26.7092L28.8552 26.2682C28.921 25.7461 29.0197 25.2722 29.1514 24.8466C29.2874 24.4166 29.4673 24.0458 29.691 23.7343C29.9148 23.4184 30.1869 23.1749 30.5072 23.0038C30.8319 22.8326 31.2114 22.7471 31.6458 22.7471C32.0977 22.7471 32.4948 22.8326 32.8371 23.0038C33.1837 23.1749 33.4755 23.4206 33.7124 23.7409C33.9493 24.0612 34.127 24.4429 34.2455 24.8861C34.364 25.3293 34.4232 25.8229 34.4232 26.367ZM32.6791 26.5052L32.6791 26.367C32.6791 26.051 32.6506 25.7593 32.5935 25.4916C32.5365 25.2196 32.4487 24.9826 32.3303 24.7808C32.2118 24.5746 32.0582 24.4144 31.8696 24.3003C31.6809 24.1862 31.4527 24.1292 31.1851 24.1292C30.9174 24.1292 30.6871 24.1731 30.494 24.2608C30.3009 24.3486 30.143 24.4736 30.0201 24.636C29.8973 24.7983 29.8007 24.9914 29.7305 25.2152C29.6647 25.4346 29.6208 25.6781 29.5989 25.9457L29.5989 27.0383C29.6384 27.363 29.7152 27.6548 29.8293 27.9136C29.9433 28.1725 30.1101 28.3787 30.3295 28.5323C30.5532 28.6859 30.8428 28.7627 31.1982 28.7627C31.4659 28.7627 31.694 28.7034 31.8827 28.585C32.0714 28.4665 32.225 28.3041 32.3434 28.0979C32.4619 27.8873 32.5475 27.646 32.6001 27.3739C32.6528 27.1019 32.6791 26.8123 32.6791 26.5052ZM37.5363 19.8907L37.5363 30L35.7922 30L35.7922 19.8907L37.5363 19.8907ZM38.8856 26.5117L38.8856 26.3735C38.8856 25.8514 38.9601 25.3709 39.1093 24.9322C39.2585 24.489 39.4757 24.1051 39.7609 23.7804C40.0461 23.4557 40.3949 23.2034 40.8074 23.0235C41.2198 22.8392 41.6893 22.7471 42.2158 22.7471C42.7511 22.7471 43.225 22.8392 43.6375 23.0235C44.0543 23.2034 44.4053 23.4557 44.6905 23.7804C44.9757 24.1051 45.1929 24.489 45.3421 24.9322C45.4913 25.3709 45.5659 25.8514 45.5659 26.3735L45.5659 26.5117C45.5659 27.0295 45.4913 27.51 45.3421 27.9531C45.1929 28.3919 44.9757 28.7758 44.6905 29.1049C44.4053 29.4296 44.0565 29.6819 43.6441 29.8618C43.2316 30.0417 42.7599 30.1316 42.229 30.1316C41.7025 30.1316 41.2308 30.0417 40.814 29.8618C40.3971 29.6819 40.0461 29.4296 39.7609 29.1049C39.4757 28.7758 39.2585 28.3919 39.1093 27.9531C38.9601 27.51 38.8856 27.0295 38.8856 26.5117ZM40.6231 26.3735L40.6231 26.5117C40.6231 26.8233 40.6538 27.1151 40.7152 27.3871C40.7767 27.6591 40.871 27.8983 40.9982 28.1045C41.1255 28.3107 41.29 28.4731 41.4919 28.5915C41.6981 28.7056 41.9438 28.7627 42.229 28.7627C42.5098 28.7627 42.7511 28.7056 42.953 28.5915C43.1548 28.4731 43.3194 28.3107 43.4466 28.1045C43.5782 27.8983 43.6748 27.6591 43.7362 27.3871C43.7976 27.1151 43.8283 26.8233 43.8283 26.5117L43.8283 26.3735C43.8283 26.0664 43.7976 25.779 43.7362 25.5113C43.6748 25.2393 43.5782 25.0002 43.4466 24.7939C43.3194 24.5833 43.1526 24.4188 42.9464 24.3003C42.7446 24.1775 42.501 24.116 42.2158 24.116C41.935 24.116 41.6937 24.1775 41.4919 24.3003C41.29 24.4188 41.1255 24.5833 40.9982 24.7939C40.871 25.0002 40.7767 25.2393 40.7152 25.5113C40.6538 25.779 40.6231 26.0664 40.6231 26.3735ZM48.5671 24.3332L48.5671 30L46.8296 30L46.8296 22.8787L48.475 22.8787L48.5671 24.3332ZM50.7324 22.8326L50.7061 24.4517C50.6096 24.4342 50.4999 24.421 50.377 24.4122C50.2586 24.4034 50.1467 24.3991 50.0414 24.3991C49.7737 24.3991 49.539 24.4363 49.3371 24.5109C49.1353 24.5811 48.9664 24.6843 48.8304 24.8203C48.6987 24.9563 48.5978 25.123 48.5276 25.3205C48.4574 25.5135 48.4179 25.7329 48.4091 25.9786L48.034 25.9326C48.034 25.4806 48.0801 25.0616 48.1722 24.6755C48.2643 24.2894 48.3982 23.9515 48.5737 23.6619C48.7492 23.3723 48.9686 23.1485 49.2318 22.9906C49.4995 22.8282 49.8066 22.7471 50.1533 22.7471C50.2498 22.7471 50.3529 22.7558 50.4626 22.7734C50.5767 22.7866 50.6666 22.8063 50.7324 22.8326ZM54.7538 30.1316C54.2141 30.1316 53.7293 30.0439 53.2993 29.8684C52.8693 29.6929 52.5029 29.4493 52.2001 29.1378C51.9018 28.8219 51.6714 28.4555 51.5091 28.0387C51.3511 27.6175 51.2721 27.1655 51.2721 26.6829L51.2721 26.4196C51.2721 25.8711 51.3511 25.3731 51.5091 24.9256C51.667 24.4736 51.8908 24.0853 52.1804 23.7606C52.47 23.4359 52.8166 23.1858 53.2203 23.0103C53.624 22.8348 54.0693 22.7471 54.5564 22.7471C55.0609 22.7471 55.5063 22.8326 55.8924 23.0037C56.2785 23.1705 56.601 23.4074 56.8599 23.7146C57.1188 24.0217 57.3141 24.3903 57.4457 24.8203C57.5773 25.2459 57.6431 25.7176 57.6431 26.2353L57.6431 26.9659L52.0619 26.9659L52.0619 25.768L55.9319 25.768L55.9319 25.6364C55.9231 25.36 55.8705 25.1077 55.774 24.8795C55.6774 24.647 55.5282 24.4627 55.3264 24.3267C55.1246 24.1862 54.8635 24.116 54.5432 24.116C54.2843 24.116 54.0584 24.1731 53.8653 24.2872C53.6766 24.3969 53.5187 24.5548 53.3914 24.761C53.2686 24.9629 53.1764 25.2042 53.115 25.485C53.0536 25.7658 53.0228 26.0774 53.0228 26.4196L53.0228 26.6829C53.0228 26.9812 53.0623 27.2577 53.1413 27.5122C53.2247 27.7666 53.3453 27.9882 53.5033 28.1769C53.6656 28.3612 53.8587 28.506 54.0825 28.6113C54.3106 28.7122 54.5695 28.7627 54.8591 28.7627C55.2233 28.7627 55.5524 28.6925 55.8464 28.552C56.1447 28.4072 56.4036 28.1944 56.623 27.9136L57.4983 28.8219C57.3492 29.0413 57.1473 29.2519 56.8928 29.4537C56.6427 29.6556 56.34 29.8201 55.9846 29.9473C55.6292 30.0702 55.2189 30.1316 54.7538 30.1316Z" fill="white"/>
<path d="M92.3936 15.915C90.4982 15.915 88.6454 16.4771 87.0694 17.5301C85.4935 18.5832 84.2651 20.0799 83.5398 21.831C82.8145 23.5821 82.6247 25.509 82.9944 27.368C83.3642 29.227 84.2769 30.9346 85.6172 32.2748C86.9575 33.6151 88.665 34.5278 90.524 34.8976C92.383 35.2673 94.3099 35.0776 96.061 34.3522C97.8122 33.6269 99.3089 32.3986 100.362 30.8226C101.415 29.2466 101.977 27.3938 101.977 25.4984C101.977 24.2399 101.729 22.9937 101.247 21.831C100.766 20.6683 100.06 19.6118 99.1701 18.7219C98.2802 17.832 97.2237 17.1261 96.061 16.6445C94.8983 16.1629 93.6521 15.915 92.3936 15.915V15.915ZM93.352 33.098L93.352 32.2067C93.352 31.9525 93.251 31.7088 93.0713 31.5291C92.8916 31.3493 92.6478 31.2484 92.3936 31.2484C92.1395 31.2484 91.8957 31.3493 91.716 31.5291C91.5363 31.7088 91.4353 31.9525 91.4353 32.2067L91.4353 33.098C89.7486 32.8841 88.1809 32.1156 86.9787 30.9134C85.7764 29.7111 85.008 28.1434 84.7941 26.4567L85.6853 26.4567C85.9395 26.4567 86.1832 26.3557 86.363 26.176C86.5427 25.9963 86.6436 25.7525 86.6436 25.4984C86.6436 25.2442 86.5427 25.0005 86.363 24.8207C86.1832 24.641 85.9395 24.54 85.6853 24.54L84.7941 24.54C85.008 22.8534 85.7764 21.2856 86.9787 20.0834C88.1809 18.8812 89.7486 18.1127 91.4353 17.8988L91.4353 18.79C91.4353 19.0442 91.5363 19.288 91.716 19.4677C91.8957 19.6474 92.1395 19.7484 92.3936 19.7484C92.6478 19.7484 92.8916 19.6474 93.0713 19.4677C93.251 19.288 93.352 19.0442 93.352 18.79L93.352 17.8988C95.0387 18.1127 96.6064 18.8812 97.8086 20.0834C99.0108 21.2856 99.7793 22.8534 99.9932 24.54L99.102 24.54C98.8478 24.54 98.6041 24.641 98.4243 24.8207C98.2446 25.0005 98.1436 25.2442 98.1436 25.4984C98.1436 25.7525 98.2446 25.9963 98.4243 26.176C98.6041 26.3557 98.8478 26.4567 99.102 26.4567L99.9932 26.4567C99.7793 28.1434 99.0108 29.7111 97.8086 30.9134C96.6064 32.1156 95.0387 32.8841 93.352 33.098ZM95.4028 21.2338L90.6111 23.2655C90.3878 23.3622 90.2096 23.5404 90.1128 23.7638L88.0811 28.5555C88.0057 28.7312 87.9845 28.9255 88.0204 29.1134C88.0562 29.3012 88.1475 29.4741 88.2824 29.6096C88.4593 29.7902 88.7004 29.8935 88.9532 29.8971C89.0858 29.8972 89.2168 29.8678 89.3366 29.8109L94.1282 27.7792C94.3516 27.6824 94.5298 27.5043 94.6266 27.2809L96.6582 22.4892C96.7323 22.3136 96.7523 22.1199 96.7157 21.9329C96.6791 21.7458 96.5876 21.5739 96.4528 21.4392C96.3181 21.3044 96.1462 21.2129 95.9592 21.1763C95.7721 21.1397 95.5784 21.1597 95.4028 21.2338V21.2338ZM93.0166 26.1213L90.8316 27.0796L91.7899 24.8946L93.9749 23.9363L93.0166 26.1213Z" fill="white"/>
<rect x="0.901367" width="112" height="50" rx="6" fill="black" fill-opacity="0.15"/>
<defs>
<linearGradient id="paint0_linear_1837_2152" x1="113.099" y1="50" x2="39.32" y2="-19.6889" gradientUnits="userSpaceOnUse">
<stop stop-color="#8F00FF"/>
<stop offset="1" stop-color="#00A3FF"/>
</linearGradient>
</defs>
</svg>
