<svg width="44" height="53" viewBox="0 0 44 53" fill="none" xmlns="http://www.w3.org/2000/svg">
<path d="M42.9574 40.5528C42.2135 42.3188 41.2945 44.0028 40.2146 45.5786C38.7721 47.677 37.5874 49.127 36.6794 49.9341C35.2691 51.2528 33.754 51.9313 32.1342 51.9696C30.9737 51.9696 29.5714 51.6331 27.9381 50.9491C26.2995 50.2679 24.7951 49.9341 23.4171 49.9341C21.9745 49.9341 20.4272 50.2679 18.7697 50.9491C17.1149 51.6331 15.7771 51.9915 14.7537 52.0243C13.2036 52.0927 11.6536 51.3978 10.109 49.9341C9.12312 49.0586 7.8901 47.5539 6.40993 45.4254C4.825 43.1573 3.52213 40.5172 2.50133 37.516C1.408 34.2685 0.859985 31.1277 0.859985 28.0854C0.859985 24.6026 1.59873 21.5959 3.07889 19.0789C4.19841 17.1021 5.79892 15.4523 7.72623 14.2883C9.62672 13.1274 11.7962 12.5023 14.0122 12.4772C15.2479 12.4772 16.8678 12.8657 18.8745 13.6317C20.8812 14.3978 22.1706 14.7863 22.732 14.7863C23.1565 14.7863 24.5829 14.3294 27.0114 13.4238C29.3028 12.5839 31.2369 12.2364 32.8219 12.3732C37.12 12.7262 40.3463 14.4498 42.4927 17.5577C38.6512 19.9297 36.752 23.2483 36.7896 27.5081C36.8218 30.8267 38.0065 33.5872 40.3275 35.7787C41.3536 36.7787 42.5508 37.579 43.86 38.1397C43.5752 38.9797 43.2744 39.7813 42.9574 40.5528V40.5528ZM33.1066 1.0713C33.1066 3.67039 32.1718 6.09985 30.3155 8.34601C28.0698 11.0162 25.3566 12.562 22.4151 12.3185C22.3766 11.9917 22.3577 11.6628 22.3586 11.3336C22.3586 8.83573 23.4224 6.16551 25.3217 3.97954C26.2672 2.87425 27.4707 1.95225 28.9294 1.21904C30.3854 0.496766 31.7608 0.0973277 33.0556 0.0289307C33.0905 0.379123 33.1066 0.726581 33.1066 1.0713V1.0713Z" fill="white"/>
</svg>
