<svg width="49" height="50" viewBox="0 0 49 50" fill="none" xmlns="http://www.w3.org/2000/svg">
<g clip-path="url(#clip0_1_44)">
<path d="M48.8368 25.4951C48.8368 23.4535 48.6709 21.9636 48.3119 20.4186H24.9706V29.6336H38.6714C38.3953 31.9236 36.9037 35.3724 33.5889 37.6899L33.5424 37.9984L40.9225 43.7088L41.4338 43.7598C46.1296 39.4281 48.8368 33.0548 48.8368 25.4951Z" fill="#4285F4"/>
<path d="M24.9706 49.7744C31.6828 49.7744 37.3179 47.5671 41.4338 43.7598L33.5889 37.6898C31.4896 39.1521 28.672 40.1729 24.9706 40.1729C18.3964 40.1729 12.8166 35.8414 10.8276 29.8544L10.536 29.8791L2.86208 35.811L2.76172 36.0897C6.84986 44.2011 15.2472 49.7744 24.9706 49.7744Z" fill="#34A853"/>
<path d="M10.8276 29.8544C10.3027 28.3094 9.999 26.6538 9.999 24.9433C9.999 23.2326 10.3027 21.5773 10.7999 20.0323L10.786 19.7032L3.01594 13.6761L2.76172 13.7968C1.0768 17.1629 0.109985 20.9428 0.109985 24.9433C0.109985 28.9439 1.0768 32.7236 2.76172 36.0896L10.8276 29.8544Z" fill="#FBBC05"/>
<path d="M24.9706 9.71356C29.6388 9.71356 32.7877 11.7276 34.5833 13.4107L41.5995 6.56835C37.2904 2.5678 31.6828 0.112274 24.9706 0.112274C15.2472 0.112274 6.84986 5.68543 2.76172 13.7968L10.7999 20.0323C12.8166 14.0453 18.3964 9.71356 24.9706 9.71356Z" fill="#EB4335"/>
</g>
<defs>
<clipPath id="clip0_1_44">
<rect width="48.75" height="49.8333" fill="white" transform="translate(0.109985 0.112274)"/>
</clipPath>
</defs>
</svg>
