<svg width="228" height="25" viewBox="0 0 228 25" fill="none" xmlns="http://www.w3.org/2000/svg">
<path d="M24.069 8.12L23.169 7.85C23.229 7.67 23.259 7.49 23.259 7.31C23.259 6.86 22.974 6.455 22.404 6.095C21.864 5.735 21.159 5.435 20.289 5.195C19.449 4.925 18.519 4.73 17.499 4.61C16.509 4.49 15.564 4.43 14.664 4.43C13.554 4.43 12.444 4.595 11.334 4.925C10.254 5.225 9.27904 5.705 8.40904 6.365C7.56904 7.025 6.87904 7.88 6.33904 8.93C5.82904 9.98 5.57404 11.255 5.57404 12.755C5.57404 14.225 5.82904 15.5 6.33904 16.58C6.87904 17.63 7.56904 18.485 8.40904 19.145C9.27904 19.805 10.254 20.3 11.334 20.63C12.444 20.93 13.554 21.08 14.664 21.08C16.374 21.08 17.904 20.945 19.254 20.675C20.634 20.375 21.804 20.06 22.764 19.73V15.86H17.004C16.584 15.86 16.269 15.95 16.059 16.13C15.849 16.31 15.714 16.7 15.654 17.3H14.844V11.54H15.654C15.714 12.05 15.849 12.38 16.059 12.53C16.269 12.65 16.584 12.71 17.004 12.71H28.254V13.52C27.654 13.61 27.279 13.715 27.129 13.835C26.979 13.955 26.904 14.21 26.904 14.6V19.685C26.904 19.985 26.994 20.18 27.174 20.27C27.354 20.36 27.564 20.465 27.804 20.585V21.305C26.814 21.995 25.764 22.565 24.654 23.015C23.574 23.465 22.464 23.825 21.324 24.095C20.214 24.335 19.089 24.485 17.949 24.545C16.839 24.605 15.744 24.635 14.664 24.635C12.564 24.635 10.644 24.38 8.90404 23.87C7.19404 23.33 5.72404 22.55 4.49404 21.53C3.26404 20.48 2.30404 19.22 1.61404 17.75C0.954043 16.25 0.624043 14.555 0.624043 12.665C0.624043 10.775 0.954043 9.095 1.61404 7.625C2.30404 6.125 3.26404 4.85 4.49404 3.8C5.72404 2.75 7.19404 1.955 8.90404 1.415C10.644 0.845 12.564 0.56 14.664 0.56C15.984 0.56 17.244 0.649999 18.444 0.829999C19.644 1.01 20.709 1.22 21.639 1.46C22.569 1.67 23.334 1.88 23.934 2.09C24.564 2.27 24.954 2.36 25.104 2.36C25.374 2.36 25.584 2.3 25.734 2.18C25.884 2.06 26.034 1.955 26.184 1.865L26.724 2.18L24.069 8.12ZM163.36 2.45C163.36 1.91 163.03 1.64 162.37 1.64V0.829999H169.3V1.64C169.09 1.64 168.895 1.715 168.715 1.865C168.565 1.985 168.49 2.18 168.49 2.45V22.88C168.49 23.15 168.565 23.36 168.715 23.51C168.895 23.63 169.09 23.69 169.3 23.69V24.5H162.37V23.69C163.03 23.69 163.36 23.42 163.36 22.88V14.42H148.87V22.88C148.87 23.15 148.945 23.36 149.095 23.51C149.275 23.63 149.47 23.69 149.68 23.69V24.5H142.885V23.69C143.455 23.69 143.74 23.42 143.74 22.88V2.45C143.74 1.91 143.455 1.64 142.885 1.64V0.829999H149.68V1.64C149.47 1.64 149.275 1.715 149.095 1.865C148.945 1.985 148.87 2.18 148.87 2.45V10.1H163.36V2.45Z" fill="#5D89FB"/>
<path d="M46.8246 16.22L43.1796 8.66L39.9846 16.22H46.8246ZM31.7946 23.69C32.1546 23.63 32.4396 23.465 32.6496 23.195C32.8896 22.895 33.0696 22.625 33.1896 22.385L39.8946 7.76C40.0746 7.34 40.2096 7.01 40.2996 6.77C40.4196 6.5 40.4796 6.245 40.4796 6.005C40.4796 5.825 40.4346 5.72 40.3446 5.69C40.2846 5.63 40.2096 5.57 40.1196 5.51V4.7H46.9146V5.51C46.8246 5.57 46.7196 5.615 46.5996 5.645C46.5096 5.675 46.4646 5.795 46.4646 6.005C46.4646 6.185 46.5246 6.41 46.6446 6.68C46.7946 6.92 46.9446 7.205 47.0946 7.535L54.3846 22.835C54.5346 23.105 54.6996 23.3 54.8796 23.42C55.0596 23.54 55.2546 23.63 55.4646 23.69V24.5H49.0746V23.825C49.2246 23.825 49.3746 23.78 49.5246 23.69C49.7046 23.6 49.7946 23.435 49.7946 23.195C49.7946 23.015 49.7646 22.85 49.7046 22.7C49.6446 22.55 49.5696 22.355 49.4796 22.115L48.2646 19.55H38.6346L37.3746 21.98C37.2546 22.22 37.1496 22.445 37.0596 22.655C36.9996 22.835 36.9696 23 36.9696 23.15C36.9696 23.39 37.0446 23.54 37.1946 23.6C37.3446 23.66 37.5546 23.69 37.8246 23.69V24.5H31.7946V23.69ZM60.3095 23.69C60.4595 23.66 60.5795 23.6 60.6695 23.51C60.7895 23.42 60.8495 23.21 60.8495 22.88V6.41C60.8495 5.99 60.8045 5.735 60.7145 5.645C60.6545 5.555 60.5195 5.51 60.3095 5.51V4.7H66.5645V5.51C66.2645 5.51 66.1145 5.645 66.1145 5.915C66.1145 6.035 66.1595 6.2 66.2495 6.41C66.3695 6.59 66.5345 6.86 66.7445 7.22L72.2345 17.345L77.7695 7.265C77.9795 6.905 78.1445 6.62 78.2645 6.41C78.3845 6.17 78.4445 6.005 78.4445 5.915C78.4445 5.645 78.3245 5.51 78.0845 5.51V4.7H84.4295V5.51C84.2795 5.51 84.1295 5.555 83.9795 5.645C83.8595 5.705 83.7995 5.855 83.7995 6.095V23.015C83.7995 23.255 83.8595 23.435 83.9795 23.555C84.1295 23.645 84.2795 23.69 84.4295 23.69V24.5H79.2095V23.69C79.8395 23.69 80.1095 23.465 80.0195 23.015V10.37H79.9295L72.2795 24.5H71.9195L64.6745 10.37H64.7195H64.6295V23.015C64.6295 23.465 64.8845 23.69 65.3945 23.69V24.5H60.3095V23.69ZM109.66 8.885C109.66 8.315 109.195 8.03 108.265 8.03H97.2851V12.53H104.215C104.725 12.53 105.1 12.5 105.34 12.44C105.58 12.35 105.7 12.14 105.7 11.81H106.51V16.58H105.61C105.7 16.25 105.58 16.055 105.25 15.995C104.92 15.905 104.455 15.86 103.855 15.86H97.2851V21.17H108.805C109.165 21.17 109.465 21.095 109.705 20.945C109.945 20.765 110.065 20.54 110.065 20.27H110.875V24.995H110.065C110.065 24.725 109.945 24.575 109.705 24.545C109.465 24.515 109.165 24.5 108.805 24.5H92.2901V23.69C92.4401 23.69 92.5901 23.645 92.7401 23.555C92.8901 23.435 92.9651 23.255 92.9651 23.015V6.185C92.9651 5.945 92.8901 5.78 92.7401 5.69C92.5901 5.57 92.4401 5.51 92.2901 5.51V4.7H108.265C109.195 4.7 109.66 4.43 109.66 3.89H110.47V8.885H109.66ZM118.6 17.615C118.6 17.735 118.585 17.87 118.555 18.02C118.555 18.14 118.555 18.275 118.555 18.425C118.555 18.875 118.84 19.295 119.41 19.685C119.98 20.045 120.655 20.36 121.435 20.63C122.245 20.87 123.04 21.065 123.82 21.215C124.63 21.365 125.26 21.44 125.71 21.44C126.13 21.44 126.64 21.41 127.24 21.35C127.87 21.29 128.485 21.17 129.085 20.99C129.685 20.78 130.195 20.51 130.615 20.18C131.035 19.82 131.245 19.355 131.245 18.785C131.245 18.125 130.87 17.645 130.12 17.345C129.4 17.045 128.485 16.82 127.375 16.67C126.265 16.49 125.065 16.325 123.775 16.175C122.485 15.995 121.285 15.725 120.175 15.365C119.065 14.975 118.135 14.435 117.385 13.745C116.665 13.025 116.305 12.02 116.305 10.73C116.305 8.81 117.1 7.28 118.69 6.14C120.28 5 122.515 4.43 125.395 4.43C126.805 4.43 128.005 4.55 128.995 4.79C130.015 5 130.87 5.24 131.56 5.51C132.25 5.78 132.805 6.035 133.225 6.275C133.675 6.485 134.005 6.59 134.215 6.59C134.455 6.59 134.635 6.56 134.755 6.5C134.875 6.41 135.025 6.32 135.205 6.23L135.7 6.725L133.45 10.955L132.64 10.685C132.61 10.505 132.58 10.325 132.55 10.145C132.52 9.965 132.385 9.785 132.145 9.605C131.545 9.095 130.615 8.66 129.355 8.3C128.095 7.94 126.685 7.76 125.125 7.76C124.525 7.76 123.955 7.805 123.415 7.895C122.875 7.955 122.395 8.075 121.975 8.255C121.555 8.435 121.225 8.675 120.985 8.975C120.745 9.245 120.625 9.59 120.625 10.01C120.625 10.67 120.985 11.15 121.705 11.45C122.455 11.72 123.385 11.945 124.495 12.125C125.605 12.275 126.805 12.44 128.095 12.62C129.385 12.77 130.585 13.04 131.695 13.43C132.805 13.82 133.72 14.39 134.44 15.14C135.19 15.89 135.565 16.925 135.565 18.245C135.565 19.565 135.235 20.645 134.575 21.485C133.945 22.325 133.15 22.985 132.19 23.465C131.23 23.945 130.165 24.26 128.995 24.41C127.855 24.56 126.775 24.635 125.755 24.635C124.735 24.635 123.715 24.545 122.695 24.365C121.705 24.155 120.79 23.93 119.95 23.69C119.14 23.42 118.45 23.18 117.88 22.97C117.31 22.73 116.965 22.61 116.845 22.61C116.635 22.61 116.455 22.7 116.305 22.88L115.675 22.43L117.745 17.39L118.6 17.615ZM183.399 5.51C182.739 5.51 182.409 5.735 182.409 6.185V16.49C182.409 17.93 182.934 19.085 183.984 19.955C185.034 20.825 186.639 21.26 188.799 21.26C190.959 21.26 192.564 20.825 193.614 19.955C194.664 19.085 195.189 17.93 195.189 16.49V6.185C195.189 5.735 194.814 5.51 194.064 5.51V4.7H200.319V5.51C199.659 5.51 199.329 5.735 199.329 6.185V17.57C199.329 18.5 199.119 19.4 198.699 20.27C198.279 21.11 197.634 21.86 196.764 22.52C195.924 23.18 194.829 23.705 193.479 24.095C192.159 24.455 190.599 24.635 188.799 24.635C186.999 24.635 185.424 24.455 184.074 24.095C182.754 23.705 181.659 23.18 180.789 22.52C179.949 21.86 179.319 21.11 178.899 20.27C178.479 19.4 178.269 18.5 178.269 17.57V6.185C178.269 5.945 178.179 5.78 177.999 5.69C177.819 5.57 177.474 5.51 176.964 5.51V4.7H183.399V5.51ZM220.164 12.53C220.884 12.53 221.559 12.38 222.189 12.08C222.819 11.78 223.134 11.165 223.134 10.235C223.134 9.755 223.044 9.38 222.864 9.11C222.684 8.81 222.459 8.585 222.189 8.435C221.919 8.255 221.604 8.15 221.244 8.12C220.884 8.06 220.524 8.03 220.164 8.03H212.154V12.53H220.164ZM220.074 21.17C221.454 21.17 222.399 20.945 222.909 20.495C223.419 20.045 223.674 19.415 223.674 18.605C223.674 17.675 223.344 16.985 222.684 16.535C222.024 16.085 220.914 15.86 219.354 15.86H212.154V21.17H220.074ZM207.834 6.185C207.834 5.945 207.714 5.78 207.474 5.69C207.264 5.57 207.039 5.51 206.799 5.51V4.7H220.794C221.934 4.7 222.909 4.835 223.719 5.105C224.559 5.375 225.249 5.75 225.789 6.23C226.359 6.68 226.779 7.205 227.049 7.805C227.319 8.405 227.454 9.035 227.454 9.695C227.454 10.235 227.364 10.745 227.184 11.225C227.004 11.675 226.764 12.095 226.464 12.485C226.194 12.845 225.879 13.175 225.519 13.475C225.189 13.775 224.844 14.015 224.484 14.195V14.24C224.904 14.42 225.324 14.66 225.744 14.96C226.164 15.26 226.539 15.62 226.869 16.04C227.199 16.46 227.469 16.94 227.679 17.48C227.889 18.02 227.994 18.605 227.994 19.235C227.994 19.955 227.859 20.63 227.589 21.26C227.319 21.89 226.884 22.445 226.284 22.925C225.714 23.405 224.949 23.795 223.989 24.095C223.059 24.365 221.934 24.5 220.614 24.5H206.799V23.69C207.039 23.69 207.264 23.645 207.474 23.555C207.714 23.435 207.834 23.255 207.834 23.015V6.185Z" fill="#DDDDDD"/>
</svg>
