<svg width="13" height="12" viewBox="0 0 13 12" fill="none" xmlns="http://www.w3.org/2000/svg">
<path d="M5.27943 1.03082C5.57308 0.0977616 6.89352 0.0977607 7.18717 1.03082L7.86155 3.17356C7.99263 3.59006 8.37878 3.87335 8.81542 3.87335H11.0639C12.0249 3.87335 12.4327 5.09669 11.6639 5.67332L9.7906 7.07845C9.45124 7.333 9.30941 7.77397 9.43677 8.17863L10.1393 10.4107C10.431 11.3377 9.36275 12.094 8.58536 11.5109L6.83334 10.1968C6.47777 9.93007 5.98883 9.93007 5.63326 10.1968L3.88124 11.5109C3.10385 12.094 2.03559 11.3377 2.32733 10.4107L3.02983 8.17863C3.15718 7.77397 3.01536 7.333 2.67599 7.07845L0.802683 5.67332C0.033921 5.09669 0.441733 3.87335 1.40272 3.87335H3.65118C4.08781 3.87335 4.47397 3.59006 4.60505 3.17356L5.27943 1.03082Z" fill="#FFC700" fill-opacity="0.79"/>
</svg>
