<svg width="20" height="20" viewBox="0 0 20 20" fill="none" xmlns="http://www.w3.org/2000/svg">
<path d="M8.99677 1.20665C9.28111 0.255034 10.6287 0.255036 10.9131 1.20665L12.4257 6.26907C12.5522 6.69259 12.9418 6.98278 13.3838 6.98278H18.4459C19.3942 6.98278 19.8099 8.17954 19.0658 8.76744L14.8303 12.1137C14.5088 12.3677 14.3748 12.7921 14.4921 13.1847L16.0753 18.4833C16.355 19.4196 15.264 20.16 14.4972 19.5542L10.5748 16.4553C10.2114 16.1682 9.6984 16.1682 9.33498 16.4553L5.41259 19.5542C4.64585 20.16 3.55477 19.4196 3.83452 18.4833L5.41774 13.1847C5.53504 12.7921 5.40101 12.3677 5.07953 12.1137L0.844018 8.76744C0.0998986 8.17954 0.51561 6.98278 1.46394 6.98278H6.52598C6.96799 6.98278 7.35757 6.69258 7.48412 6.26907L8.99677 1.20665Z" fill="#937200"/>
</svg>
